<?xml version="1.0" encoding="UTF-8" standalone="no"?>
<svg
   xmlns:dc="http://purl.org/dc/elements/1.1/"
   xmlns:cc="http://creativecommons.org/ns#"
   xmlns:rdf="http://www.w3.org/1999/02/22-rdf-syntax-ns#"
   xmlns:svg="http://www.w3.org/2000/svg"
   xmlns="http://www.w3.org/2000/svg"
   viewBox="0 0 443.28 498.20001"
   height="498.20001"
   width="443.28"
   xml:space="preserve"
   version="1.1"
   id="svg2"><metadata
     id="metadata8"><rdf:RDF><cc:Work
         rdf:about=""><dc:format>image/svg+xml</dc:format><dc:type
           rdf:resource="http://purl.org/dc/dcmitype/StillImage" /></cc:Work></rdf:RDF></metadata><defs
     id="defs6"><clipPath
       id="clipPath18"
       clipPathUnits="userSpaceOnUse"><path
         id="path20"
         d="M 0,3736.52 0,0 l 3324.56,0 0,3736.52 -3324.56,0 z" /></clipPath></defs><g
     transform="matrix(1.3333333,0,0,-1.3333333,0,498.2)"
     id="g10"><g
       transform="scale(0.1)"
       id="g12"><g
         id="g14"><g
           clip-path="url(#clipPath18)"
           id="g16"><path
             id="path22"
             style="fill:#6596d4;fill-opacity:1;fill-rule:evenodd;stroke:none"
             d="m 1662.28,2418.01 c -303.61,0 -549.76,-246.13 -549.76,-549.74 0,-99.29 26.47,-192.36 72.51,-272.75 l 952.72,548.57 c -95.23,163.74 -272.43,273.92 -475.47,273.92" /><path
             id="path24"
             style="fill:#6596d4;fill-opacity:1;fill-rule:evenodd;stroke:none"
             d="m 558.242,1868.27 c 0,609.73 494.288,1104.02 1104.038,1104.02 408.42,0 765.01,-221.81 956,-551.51 l 665.48,383.19 c -26.69,46.86 -66.67,86.13 -120.28,117.18 -442.6,255.19 -885.61,509.61 -1328.07,765.07 -119.28,68.87 -234.93,66.37 -353.33,-3.49 C 1305.92,3578.83 423.918,3073.52 161.098,2921.29 52.8594,2858.63 0.1875,2762.73 0.167969,2638.1 0,2124.87 0.167969,1611.66 0,1098.43 0.0234375,1036.97 12.8906,982.539 38.8672,935.602 L 704.457,1318.84 c -92.996,161.8 -146.215,349.39 -146.215,549.43" /><path
             id="path26"
             style="fill:#224b8b;fill-opacity:1;fill-rule:nonzero;stroke:none"
             d="m 1185.03,1595.52 c 94.76,-165.43 272.9,-277.01 477.25,-277.01 205.62,0 384.77,112.99 479.05,280.19 l -473.96,274.56 -482.34,-277.74" /><path
             id="path28"
             style="fill:#224b8b;fill-opacity:1;fill-rule:nonzero;stroke:none"
             d="m 1662.28,764.23 c -409.71,0 -767.303,223.168 -957.823,554.61 L 38.8672,935.602 C 65.5703,887.34 106.105,846.988 160.957,815.23 423.801,663 1305.9,157.73 1482.03,53.8086 c 118.45,-69.8867 234.1,-72.3867 353.42,-3.5 442.47,255.4724 885.51,509.8824 1328.17,765.0824 54.85,31.738 95.39,72.109 122.09,120.347 L 2621.14,1320.72 C 2430.9,988.301 2072.74,764.23 1662.28,764.23" /><path
             id="path30"
             style="fill:#2a5ea8;fill-opacity:1;fill-rule:nonzero;stroke:none"
             d="m 3235.41,1806.24 -126.46,0 0,-126.48 -126.49,0 0,126.48 -126.45,0 0,126.46 126.45,0 0,126.46 126.49,0 0,-126.46 126.46,0 0,-126.46 z m -461.45,0 -126.45,0 0,-126.48 -126.47,0 0,126.48 -126.46,0 0,126.46 126.46,0 0,126.46 126.47,0 0,-126.46 126.45,0 0,-126.46 z m 550.43,831.74 c -0.02,62.83 -13.46,118.34 -40.63,165.99 L 1667.37,1873.26 3285.71,935.738 c 25.93,46.934 38.83,101.372 38.85,162.832 0,0 0,1026.17 -0.17,1539.41" /><path
             id="path32"
             style="fill:#ffffff;fill-opacity:1;fill-rule:nonzero;stroke:none"
             d="m 3108.95,2059.16 -126.49,0 0,-126.46 -126.45,0 0,-126.46 126.45,0 0,-126.48 126.49,0 0,126.48 126.46,0 0,126.46 -126.46,0 0,126.46" /><path
             id="path34"
             style="fill:#ffffff;fill-opacity:1;fill-rule:nonzero;stroke:none"
             d="m 2647.51,2059.16 -126.47,0 0,-126.46 -126.46,0 0,-126.46 126.46,0 0,-126.48 126.47,0 0,126.48 126.45,0 0,126.46 -126.45,0 0,126.46" /><path
             id="path36"
             style="fill:#ffffff;fill-opacity:1;fill-rule:nonzero;stroke:none"
             d="m 2141.33,1598.7 c -94.28,-167.2 -273.43,-280.19 -479.05,-280.19 -204.35,0 -382.49,111.58 -477.25,277.01 -46.04,80.39 -72.51,173.46 -72.51,272.75 0,303.61 246.15,549.74 549.76,549.74 203.04,0 380.24,-110.18 475.47,-273.92 l 480.53,276.69 c -190.99,329.7 -547.58,551.51 -956,551.51 -609.75,0 -1104.038,-494.29 -1104.038,-1104.02 0,-200.04 53.219,-387.63 146.215,-549.43 190.52,-331.442 548.113,-554.61 957.823,-554.61 410.46,0 768.62,224.071 958.86,556.49 l -479.81,277.98" /></g></g></g></g></svg>